<?xml version="1.0" encoding="utf-8"?>
<!-- Generator: Adobe Illustrator 21.0.2, SVG Export Plug-In . SVG Version: 6.00 Build 0)  -->
<svg version="1.1" id="Layer_1" xmlns="http://www.w3.org/2000/svg" xmlns:xlink="http://www.w3.org/1999/xlink" x="0px" y="0px"
	 viewBox="0 0 1410.1 394.2" style="enable-background:new 0 0 1410.1 394.2;" xml:space="preserve">
<style type="text/css">
	.st0{fill:#EC008C;}
	.st1{fill:#FFF200;}
	.st2{fill:#FFFFFF;}
</style>
<g id="XMLID_74_">
	<g id="XMLID_75_">
		<g id="XMLID_127_">
			<polygon id="XMLID_73_" class="st0" points="237.7,42.6 253.2,27.1 248.3,21.7 229.3,40.7 216.2,53.8 157,113 162.1,118.1 
				225.3,54.9 			"/>
			<path id="XMLID_72_" class="st0" d="M112.1,188.6l-56.1,56.1l-2.1,2.1c2.1,7.8,4.8,15.3,8.1,22.6l3.7-3.7l48.3-48.3
				c-1.6-6.3-2.4-12.8-2.4-19.6C111.6,194.7,111.8,191.6,112.1,188.6z"/>
			<path id="XMLID_71_" class="st0" d="M184.6,116l-2.7,2.7c3-0.3,6.1-0.5,9.2-0.5c6.8,0,13.3,0.8,19.6,2.4l4.6-4.6l49.5-49.5
				l9.5-9.5l33.1-33.1l-43.9,14.6l-0.7-0.8l-9.5,9.5l-11,11L184.6,116z"/>
			<path id="XMLID_70_" class="st0" d="M292.8,69.3l40.7-40.7l-3.1-7.2L286.9,65C288.9,66.4,290.9,67.8,292.8,69.3z"/>
			<path id="XMLID_69_" class="st0" d="M232.3,129.7l5.2-5.2l47.1-47.1c-2.1-1.3-4.2-2.6-6.4-3.9l-47.6,47.6l-5.1,5.1l-5.8,5.8
				l-22,22l5.1,5.1l24.8-24.8L232.3,129.7z"/>
			<path id="XMLID_145_" class="st0" d="M121.1,322.8l47.4-47.4l1.1-1.1l9.4-9.4c-10-2.8-19.1-7.6-27-13.9l-6.8,6.8
				c-6.7-7.4-11.9-16-15.3-25.6l3.3-3.3l23.9-23.9l-5.1-5.1l-22.2,22.2c-1.8-4.1-3.3-8.3-4.3-12.8c0-1-0.1-2-0.1-2.9
				c0-0.1,0-0.3,0-0.4l16.4-16.4l-11.1-11.1c0.9-2.4,2-4.8,3.2-7.1c2.3-4.4,4.9-8.6,8-12.5c0.1-0.1,0.2-0.2,0.3-0.3l-0.3,0.3
				l-7.5-7.5c-2.6,4.4-4.8,9-6.6,13.9l-6.1-6.1c0.2-0.4,0.5-0.9,0.8-1.3l9.2-9.2l-1.7-1.7c3.1-3.7,6.5-7.2,10.2-10.3l1.7,1.7
				l-10.2,10.2l2.8,2.8c2.5-4.2,5.5-8.1,8.7-11.7c1.6-1.8,3.3-3.5,5.1-5.1c5.4-5,11.6-9.2,18.2-12.4c0.1-0.1,0.2-0.1,0.4-0.2
				c-0.1,0-0.3,0.1-0.4,0.1l-4.1-4.1l-10.7,10.7c-1.9,1.1-3.8,2.3-5.6,3.6l-4.1-4.1l-5.1,5.1l-5.1-5.1l5.1-5.1l15.3-15.3l54.7-54.7
				c-1.5,0-3.1-0.1-4.6-0.1c-1.9,0-3.8,0-5.6,0.1l-49.5,49.5l-15.3,15.3l-5.1,5.1l-10.2,10.2l-10.2,10.2l-5.1-5.1l10.2-10.2
				l-5.1-5.1l-10.2,10.2l-5.1-5.1l10.2-10.2l5.1,5.1l10.2-10.2l-5.1-5.1l5.1-5.1l15.3-15.3L159.9,59l19.8-19.8
				c-9,1.2-17.8,3.2-26.3,5.9L124,74.4c-1.2,0.7-2.3,1.4-3.5,2.1c-6.2,3.9-12.1,8.2-17.7,13l3,3l-5.1,5.1l-3.3-3.3l-8.7-8.7
				c-3.3,3.5-6.5,7.2-9.5,11l8.1,8.1l3.2,3.2l-10.2,10.2l-2.1-2.1c-1.4,2-2.8,4-4.2,6c-1.4,2.1-2.8,4.3-4.1,6.5l5.3-5.3l10.2,10.2
				l5.1,5.1l-39.2,39.2l-4.5,4.5L2.6,226.5l5.1,5.1l38.8-38.8l3-3l46.1-46.1l5.1,5.1l-52,52l-1.8,1.8L0,249.5l1,9.2l46.9-46.9
				c0.4,2.8,0.8,5.5,1.3,8.2c-0.3-3-0.4-6-0.5-9l57.2-57.2l5.1,5.1l-61.6,61.6c0-0.2-0.1-0.4-0.1-0.6c0,0.2,0,0.4,0.1,0.7
				c0.3,3.1,0.6,6.1,1.1,9.1l0.8-0.8l64.9-64.9l2,2c-3,7-5.1,14.5-6,22.4l12.5-12.5c-1,4.9-1.5,10-1.5,15.2c0,5.3,0.5,10.5,1.6,15.5
				L114,217.4c1.3,5.2,3.2,10.2,5.5,15l-45.9,45.9l-4.6,4.6c1.2,2.2,2.5,4.3,3.9,6.4l5.1-5.1l45.2-45.2c5.1,8.3,11.6,15.7,19.3,21.6
				l-44.8,44.8l-6.7,6.7l-33.7,33.7l20.5,20.5l35.1-35.1L121.1,322.8z M116.1,153.9l-5.1-5.1l10.2-10.2l5.1,5.1L116.1,153.9z"/>
			<path id="XMLID_66_" class="st0" d="M307.6,95.4L254,149l-0.6,0.6c1,0.9,1.9,1.7,2.8,2.7l0.1-0.1L310.4,98
				C309.5,97.1,308.5,96.2,307.6,95.4z"/>
			<polygon id="XMLID_65_" class="st0" points="136.5,92.6 121.2,107.9 126.3,113 141.6,97.7 185.3,54 201.4,37.9 233.9,5.4 
				229.1,0 191,38.1 173.3,55.8 			"/>
			<path id="XMLID_64_" class="st0" d="M47.8,171.1l6.6-6.6c3.6-12.7,8.8-24.8,15.4-35.9l-16.2,16.2C51,153.2,49,162,47.8,171.1z"/>
			<polygon id="XMLID_63_" class="st0" points="262.1,253.4 264.4,251.1 279.7,235.8 274.6,230.6 259.3,246 256.9,248.3 
				254.2,251.1 259.3,256.2 			"/>
			<path id="XMLID_62_" class="st0" d="M197.5,277.1c-2.1,0.2-4.2,0.3-6.3,0.3c-1.4,0-2.7,0-4-0.1l-3.6,3.6l-49,49l-9.3,9.3
				l-37.3,37.3l5.1,5.1l38.8-38.8l9.8-9.8l50.5-50.5L197.5,277.1z"/>
			
				<rect id="XMLID_61_" x="294.8" y="274.7" transform="matrix(0.7071 -0.7071 0.7071 0.7071 -115.0572 293.2551)" class="st0" width="3.3" height="21.7"/>
			<path id="XMLID_60_" class="st0" d="M206.9,359.7c12.5-0.4,24.6-2.3,36.2-5.5l26.4-26.4c-14,7.2-29.3,12.2-45.5,14.8L206.9,359.7
				z"/>
			<polygon id="XMLID_59_" class="st0" points="223.5,240.9 213.2,230.6 203,240.9 197.9,246 208.1,256.2 213.2,251.1 			"/>
			<path id="XMLID_58_" class="st0" d="M270.4,204.1l-11.2,11.2l7.4,7.4C268.7,216.8,269.9,210.6,270.4,204.1z"/>
			<path id="XMLID_57_" class="st0" d="M254,245.4c-0.9,0.9-1.9,1.8-2.9,2.7l0.9,0.9c0.8-1,1.7-2,2.5-3.1L254,245.4z"/>
			<path id="XMLID_56_" class="st0" d="M239.4,256.9c-4.4,2.6-9,4.8-13.9,6.6l4,4c4.3-2.4,8.4-5.2,12.2-8.3L239.4,256.9z"/>
			<path id="XMLID_55_" class="st0" d="M199.8,267.9c2.4,0,4.8-0.1,7.2-0.3c3.6-0.3,7.2-0.9,10.6-1.8l-4.4-4.4l-5.1-5.1l-11.6,11.6
				C197.6,267.8,198.7,267.9,199.8,267.9z"/>
			<polygon id="XMLID_54_" class="st0" points="243.9,230.6 259.3,215.3 254.2,210.2 238.8,225.5 233.7,230.6 238.8,235.8 			"/>
			<polygon id="XMLID_53_" class="st0" points="157,194.8 167.2,184.6 177.4,174.4 182.6,169.3 172.3,159 167.2,164.2 157,174.4 
				146.8,184.6 141.6,189.7 151.9,200 			"/>
			<path id="XMLID_52_" class="st0" d="M254.2,251.1L252,249c-3.1,3.7-6.5,7.1-10.3,10.2l2.2,2.2L254.2,251.1z"/>
			<path id="XMLID_51_" class="st0" d="M284.8,281.8l-5.1-5.1l2.8-2.8l2.3-2.3l15.3-15.3L290,246l-15.3,15.3l-2.3,2.3l-2.8,2.8
				l-10.2-10.2L249,266.4l-5.1-5.1l-10.2,10.2l-4.1-4.1c-2.2,1.2-4.5,2.4-6.9,3.4l5.9,5.9l-2.6,2.6l-61.2,61.2l-11.4,11.4
				c2.6,0.9,5.2,1.7,7.8,2.4l12.1-12.1l60.5-60.5l10.2,10.2l-52.3,52.3L178,358l-33.2,33.2l17.4,1.9v1.1l34.5-34.5l15.7-15.7
				l41.8-41.8l5.1,5.1l15.3,15.3l-5.2,5.2c2.3-1.2,4.5-2.4,6.7-3.6l10.2,10.2c2-1.4,4.1-2.8,6-4.2l-9.9-9.9l-2.8-2.8l-15.3-15.3
				l-5.1-5.1l10.2-10.2l-10.2-10.2L249,286.9l-10.2-10.2l8.1-8.1c0.8-0.6,1.6-1.2,2.4-1.8c2.4-1.9,4.7-3.9,6.8-6.1l9.6,9.6
				l10.2,10.2l-6.4,6.4l5.1,5.1l6.4-6.4l15.3,15.3l-6.4,6.4l4.5,4.5c2.4-1.9,4.7-3.8,7-5.9c1.3-1.2,2.7-2.4,4-3.6l-5.2-5.2
				L284.8,281.8z"/>
			<polygon id="XMLID_50_" class="st0" points="332.2,234.5 305.3,261.3 320.6,276.7 359,238.3 			"/>
		</g>
		<g id="XMLID_119_">
			<path id="XMLID_49_" class="st1" d="M77.9,284.2l-5.1,5.1c5.3,8.2,11.3,15.9,18,22.9l6.7-6.7C90.3,299,83.8,291.9,77.9,284.2z"/>
			<path id="XMLID_48_" class="st1" d="M237.6,124.5l-5.2,5.2c8.3,5.1,15.7,11.6,21.6,19.3l53.6-53.6c-2-1.9-4.1-3.8-6.3-5.7
				L254,137C249.2,132.1,243.6,127.9,237.6,124.5z"/>
			<path id="XMLID_47_" class="st1" d="M51.2,229l-0.8,0.8c0.9,5.7,2.1,11.4,3.6,16.9l2.1-2.1C54.2,239.6,52.5,234.4,51.2,229z"/>
			<path id="XMLID_46_" class="st1" d="M121.1,322.8l-8.4,8.4c4,2.9,8.1,5.6,12.4,8l9.3-9.3C129.8,327.8,125.4,325.4,121.1,322.8z"
				/>
			<path id="XMLID_45_" class="st1" d="M282.5,320.4l9.9,9.9c3.9-2.9,7.7-5.9,11.3-9.1l-9.3-9.3
				C290.6,314.9,286.6,317.7,282.5,320.4z"/>
			<path id="XMLID_44_" class="st1" d="M212.4,344l-15.7,15.7c1.7,0.1,3.5,0.1,5.3,0.1c1.7,0,3.3,0,5-0.1l17.1-17.1
				C220.2,343.3,216.3,343.7,212.4,344z"/>
			<path id="XMLID_43_" class="st1" d="M166.6,122.1c4.9-1.6,10.1-2.7,15.3-3.3l2.7-2.7C178.3,117.3,172.3,119.4,166.6,122.1z"/>
		</g>
		<g id="XMLID_76_">
			<polygon id="XMLID_42_" class="st2" points="323,182.2 274.6,230.6 279.7,235.8 327.1,188.4 			"/>
			<path id="XMLID_41_" class="st2" d="M4.9,295.8l22.3,8.4L62,269.3c-3.3-7.3-6-14.8-8.1-22.6L4.9,295.8z"/>
			<path id="XMLID_40_" class="st2" d="M242.2,58.5l11-11c-5.1-1.9-10.3-3.5-15.6-4.9l-12.3,12.3C231.1,55.8,236.7,57,242.2,58.5z"
				/>
			<path id="XMLID_39_" class="st2" d="M191,38.1c-3.8,0.2-7.6,0.6-11.3,1.1L159.9,59c4.4-1.2,8.8-2.3,13.4-3.2L191,38.1z"/>
			
				<rect id="XMLID_38_" x="263.8" y="252.7" transform="matrix(0.7071 -0.7071 0.7071 0.7071 -105.9631 264.0681)" class="st2" width="3.9" height="14.5"/>
			<path id="XMLID_37_" class="st2" d="M124,74.4L153.4,45c-15.5,4.9-29.9,12.2-42.8,21.5l10,10C121.7,75.8,122.8,75.1,124,74.4z"/>
			<path id="XMLID_36_" class="st2" d="M183.5,280.9l3.6-3.6c-6.1-0.3-12-1.3-17.6-2.9l-1.1,1.1
				C173.2,277.8,178.2,279.6,183.5,280.9z"/>
			<path id="XMLID_35_" class="st2" d="M229.6,267.5l4.1,4.1l10.2-10.2l-2.2-2.2C238,262.3,233.9,265.1,229.6,267.5z"/>
			<path id="XMLID_34_" class="st2" d="M228.6,276.7l-5.9-5.9c-7.8,3.4-16.3,5.6-25.3,6.3l-5.4,5.4l-50.5,50.5
				c7.5,3.1,15.2,5.6,23.2,7.5l61.2-61.2L228.6,276.7z"/>
			<path id="XMLID_33_" class="st2" d="M308.3,299.6l-5.3-5.3l-2.8,2.8l5.2,5.2C306.4,301.5,307.3,300.6,308.3,299.6z"/>
			
				<rect id="XMLID_32_" x="281.7" y="274.2" transform="matrix(0.7071 -0.7071 0.7071 0.7071 -113.3775 281.971)" class="st2" width="3.9" height="7.2"/>
			<path id="XMLID_31_" class="st2" d="M254.5,245.9c-0.8,1.1-1.6,2.1-2.5,3.1l2.1,2.1l2.8-2.8L254.5,245.9z"/>
			<path id="XMLID_30_" class="st2" d="M51.2,229c1.3,5.3,3,10.5,4.9,15.6l56.1-56.1c0.9-7.9,3-15.4,6-22.4l-2-2L51.2,229z"/>
			<path id="XMLID_29_" class="st2" d="M90.5,138.6l-5.1-5.1l-10.2-10.2l-5.3,5.3c-6.6,11.1-11.8,23.2-15.4,35.9l-6.6,6.6
				c-0.5,3.7-0.8,7.5-1.1,11.3l4.5-4.5L90.5,138.6z"/>
			<path id="XMLID_28_" class="st2" d="M100.7,97.7l5.1-5.1l-3-3l-9-9c-1.7,1.7-3.4,3.4-5.1,5.1l8.7,8.7L100.7,97.7z"/>
			<path id="XMLID_27_" class="st2" d="M114,217.4l-48.3,48.3c2.4,4.3,5,8.5,7.8,12.6l45.9-45.9C117.2,227.6,115.3,222.6,114,217.4z
				"/>
			<path id="XMLID_26_" class="st2" d="M279.7,317.6l2.8,2.8c4.1-2.6,8.1-5.5,12-8.5l-4.5-4.5L279.7,317.6z"/>
			<path id="XMLID_25_" class="st2" d="M233.7,281.8l-60.5,60.5c6,1.1,12.1,1.8,18.4,2.1l52.3-52.3L233.7,281.8z"/>
			<path id="XMLID_24_" class="st2" d="M123.1,239l-45.2,45.2c5.9,7.7,12.5,14.8,19.7,21.3l44.8-44.8
				C134.7,254.7,128.1,247.3,123.1,239z"/>
			<path id="XMLID_23_" class="st2" d="M48.7,200.8l52-52l-5.1-5.1l-46.1,46.1l-3,3c0,3.3,0.2,6.6,0.4,9.8L48.7,200.8z"/>
			<polygon id="XMLID_22_" class="st2" points="131.4,118.1 126.3,113 121.2,107.9 136.5,92.6 131.4,87.4 116.1,102.8 111,107.9 
				116.1,113 105.8,123.2 111,128.4 121.2,118.1 126.3,123.2 			"/>
			<path id="XMLID_21_" class="st2" d="M246.9,268.6l-8.1,8.1l10.2,10.2l10.2-10.2l-9.9-9.9C248.5,267.4,247.7,268,246.9,268.6z"/>
			
				<rect id="XMLID_20_" x="90.9" y="122.2" transform="matrix(0.7071 -0.7071 0.7071 0.7071 -60.205 106.2651)" class="st2" width="14.5" height="7.2"/>
			
				<rect id="XMLID_19_" x="259.7" y="291" transform="matrix(0.7071 -0.7071 0.7071 0.7071 -130.1121 275.0329)" class="st2" width="14.5" height="7.2"/>
			
				<rect id="XMLID_18_" x="101.2" y="132.4" transform="matrix(0.7071 -0.7071 0.7071 0.7071 -64.4418 116.4937)" class="st2" width="14.5" height="7.2"/>
			
				<rect id="XMLID_17_" x="111.4" y="142.6" transform="matrix(0.7071 -0.7071 0.7071 0.7071 -68.6786 126.7223)" class="st2" width="14.5" height="7.2"/>
			<path id="XMLID_16_" class="st2" d="M141.6,97.7l5.1,5.1l49.5-49.5l15-15c-3.2-0.2-6.5-0.4-9.8-0.4L185.3,54L141.6,97.7z"/>
			<path id="XMLID_15_" class="st2" d="M151.9,107.9l-15.3,15.3l-5.1,5.1l5.1,5.1l5.1-5.1L157,113l59.2-59.2l13.1-13.1
				c-2.9-0.6-5.8-1-8.8-1.4l-13.9,13.9L151.9,107.9z"/>
			<path id="XMLID_14_" class="st2" d="M230.8,121.1l47.6-47.6l8.5-8.5c-4.1-2.8-8.3-5.4-12.6-7.8l-9.5,9.5l-49.5,49.5
				C220.7,117.2,225.9,118.9,230.8,121.1z"/>
			<path id="XMLID_13_" class="st2" d="M237.6,124.5c6,3.4,11.6,7.6,16.4,12.5l47.3-47.3l6.9-6.9c-4.8-4.8-10-9.3-15.5-13.5
				l-8.1,8.1L237.6,124.5z"/>
			<path id="XMLID_12_" class="st2" d="M259.3,307.4L224,342.6c16.1-2.6,31.4-7.6,45.5-14.8l5.2-5.2L259.3,307.4z"/>
			<path id="XMLID_11_" class="st2" d="M78.1,116l2.1,2.1l10.2-10.2l-3.2-3.2l-8.1-8.1c-3,3.8-5.9,7.8-8.5,12
				c-1.3,2.1-2.6,4.2-3.9,6.4c-5.4,9.4-9.8,19.4-13.1,29.9l16.2-16.2c1.3-2.2,2.7-4.4,4.1-6.5C75.3,120,76.7,118,78.1,116z"/>
			<path id="XMLID_10_" class="st2" d="M294.5,311.9l9.3,9.3c2.3-2,4.5-4.1,6.6-6.2l-8.9-8.9C299.2,308,296.9,310,294.5,311.9z"/>
			
				<rect id="XMLID_9_" x="244.4" y="255.2" transform="matrix(0.7071 -0.7071 0.7071 0.7071 -109.2917 253.7015)" class="st2" width="14.5" height="7.2"/>
			
				<rect id="XMLID_8_" x="263.1" y="271.3" transform="matrix(0.7071 -0.7071 0.7071 0.7071 -118.6019 270.8169)" class="st2" width="9.1" height="14.5"/>
			
				<rect id="XMLID_7_" x="281" y="285.6" transform="matrix(0.7071 -0.7071 0.7071 0.7071 -126.0162 288.7141)" class="st2" width="9.1" height="21.7"/>
			<path id="XMLID_6_" class="st2" d="M129.8,147.2l1.7,1.7l10.2-10.2l-1.7-1.7C136.2,140,132.8,143.4,129.8,147.2z"/>
			
				<rect id="XMLID_5_" x="266.3" y="241.3" transform="matrix(0.7071 -0.7071 0.7071 0.7071 -94.5693 268.7889)" class="st2" width="21.7" height="14.5"/>
			<path id="XMLID_4_" class="st2" d="M256.5,243.2l2.8,2.8l15.3-15.3l-7.9-7.9C264.3,230.1,260.8,237,256.5,243.2z"/>
			
				<rect id="XMLID_3_" x="284.2" y="262.8" transform="matrix(0.7071 -0.7071 0.7071 0.7071 -101.984 286.6841)" class="st2" width="21.7" height="7.2"/>
			<polygon id="XMLID_2_" class="st2" points="316.9,219 290,246 300.2,256.2 320.3,236.1 			"/>
			<path id="XMLID_1_" class="st2" d="M269.5,327.9l-26.4,26.4c15.6-4.3,30.1-11,43.3-19.7l-10.2-10.2
				C274,325.5,271.7,326.7,269.5,327.9z"/>
		</g>
	</g>
</g>
<g>
	<path class="st2" d="M456.3,110.9c0-8.1,1.4-16.2,4.3-24.2c2.9-8,7-15.3,12.5-21.7c5.5-6.4,12.3-11.6,20.2-15.5
		c8-3.9,17-5.9,27.2-5.9c12,0,22.4,2.7,31,8.2c8.6,5.4,15,12.5,19.2,21.3l-13.5,8.7c-2-4.3-4.5-7.9-7.3-10.8c-2.9-2.9-6-5.3-9.3-7
		c-3.4-1.8-6.8-3-10.4-3.8c-3.5-0.8-7-1.1-10.5-1.1c-7.5,0-14.1,1.6-19.9,4.7c-5.8,3.1-10.6,7.2-14.5,12.2c-3.9,5-6.9,10.6-8.8,16.9
		c-2,6.3-2.9,12.6-2.9,18.9c0,7.1,1.2,13.8,3.5,20.2c2.3,6.4,5.6,12.1,9.8,17c4.2,4.9,9.1,8.9,14.8,11.8c5.7,2.9,11.9,4.4,18.6,4.4
		c3.5,0,7.2-0.4,10.9-1.3c3.7-0.9,7.3-2.3,10.7-4.3c3.4-2,6.6-4.4,9.6-7.4c3-3,5.4-6.6,7.3-10.7l14.3,7.8c-2.2,5.1-5.2,9.5-9,13.4
		c-3.9,3.9-8.2,7.1-13.1,9.8c-4.9,2.7-10,4.7-15.5,6.1c-5.4,1.4-10.8,2.1-16,2.1c-9.2,0-17.7-2-25.5-6.1c-7.7-4.1-14.4-9.3-20-15.9
		c-5.6-6.5-10-13.9-13.1-22.2C457.8,127.9,456.3,119.5,456.3,110.9z"/>
	<path class="st2" d="M647.8,180.2c-9.5,0-18.1-1.9-25.9-5.8c-7.8-3.9-14.5-9-20-15.4c-5.6-6.4-9.9-13.7-12.9-21.9
		c-3-8.2-4.6-16.7-4.6-25.3c0-9,1.6-17.6,4.8-25.8c3.2-8.2,7.7-15.5,13.4-21.8c5.7-6.3,12.4-11.4,20.2-15.1
		c7.8-3.7,16.2-5.6,25.4-5.6c9.5,0,18.1,2,25.8,6c7.7,4,14.4,9.2,20,15.7c5.6,6.5,9.9,13.8,12.9,21.9s4.6,16.5,4.6,25
		c0,9-1.6,17.6-4.8,25.8c-3.2,8.2-7.7,15.5-13.3,21.8c-5.6,6.3-12.4,11.3-20.1,15C665.4,178.4,656.9,180.2,647.8,180.2z
		 M601.6,111.8c0,6.8,1.1,13.5,3.3,19.9c2.2,6.4,5.3,12.1,9.4,17c4.1,4.9,8.9,8.9,14.6,11.8c5.7,2.9,12,4.4,19,4.4
		c7.2,0,13.7-1.5,19.4-4.7c5.7-3.1,10.5-7.2,14.5-12.2c4-5,7-10.7,9.1-17c2.1-6.3,3.1-12.7,3.1-19.2c0-6.8-1.1-13.5-3.3-19.9
		c-2.2-6.4-5.4-12-9.5-16.9c-4.1-4.9-9-8.8-14.6-11.7c-5.6-2.9-11.9-4.4-18.7-4.4c-7.2,0-13.7,1.5-19.4,4.6s-10.5,7-14.5,12
		c-4,4.9-7.1,10.6-9.2,16.9C602.7,98.8,601.6,105.2,601.6,111.8z"/>
	<path class="st2" d="M735.2,179.3V44.4h46.7c10.8,0,20.2,1.8,28.4,5.3c8.2,3.5,15,8.4,20.4,14.4c5.4,6.1,9.5,13.2,12.3,21.4
		c2.7,8.2,4.1,16.9,4.1,26.1c0,10.3-1.5,19.5-4.6,27.8c-3,8.3-7.4,15.4-13.1,21.3c-5.7,5.9-12.6,10.5-20.6,13.7
		c-8,3.2-17,4.8-26.9,4.8H735.2z M829.8,111.6c0-7.6-1-14.6-3.1-21c-2.1-6.4-5.2-11.9-9.3-16.4c-4.1-4.6-9.2-8.1-15.1-10.7
		c-6-2.6-12.7-3.9-20.3-3.9h-29.6v104.5h29.6c7.7,0,14.6-1.3,20.6-4c6-2.7,11-6.3,15-11c4-4.7,7-10.2,9.1-16.6
		C828.8,126,829.8,119.1,829.8,111.6z"/>
	<path class="st2" d="M962.8,164.1v15.2h-91.6V44.4h89.9v15.2h-72.8v43.7h63.3v14.3h-63.3v46.5H962.8z"/>
	<path class="st2" d="M1034.2,179.3V44.4h17.1v119.7h75.2v15.2H1034.2z"/>
	<path class="st2" d="M1145.2,179.3V44.4h17.1v134.9H1145.2z"/>
	<path class="st2" d="M1194.6,179.3V44.6h17.1V119l69.5-74.7h18.4l-54.1,59.5l57.2,75.4h-18.6l-49-65.5l-23.4,24.3v41.2H1194.6z"/>
	<path class="st2" d="M1410.1,164.1v15.2h-91.6V44.4h89.9v15.2h-72.8v43.7h63.3v14.3h-63.3v46.5H1410.1z"/>
</g>
<rect x="389.2" y="37.9" class="st2" width="18.5" height="321.8"/>
<g>
	<path class="st2" d="M510.2,225.4h28.1l49.2,134.9h-31.9l-10.5-30.2h-42L493,360.3H461L510.2,225.4z M540.1,308.6l-15.8-47.7
		l-16.2,47.7H540.1z"/>
	<path class="st2" d="M732,347c-10.3,9.5-22.1,14.3-35.5,14.3c-8.9,0-17.2-1.7-25.1-5c-7.9-3.4-14.7-8.1-20.6-14.2
		c-5.9-6.1-10.5-13.4-14-21.9c-3.4-8.5-5.1-18-5.1-28.2c0-9.2,1.7-18,5.1-26.2c3.4-8.2,8.1-15.4,14.2-21.5
		c6-6.1,13.1-10.9,21.4-14.4c8.2-3.5,17.1-5.3,26.6-5.3c12.5,0,23.5,2.6,32.9,7.9c9.4,5.3,16.4,12.4,21.1,21.6l-23.2,17.5
		c-3-6.1-7.4-10.8-13.2-14.2c-5.8-3.4-12-5-18.7-5c-5.2,0-9.9,1-14.2,3.1c-4.2,2.1-7.9,5-10.9,8.7c-3,3.7-5.4,8.1-7,13
		c-1.6,4.9-2.5,10.3-2.5,16c0,5.8,0.9,11.2,2.7,16.1c1.8,4.9,4.2,9.2,7.4,12.8c3.2,3.6,6.9,6.4,11.3,8.5c4.4,2,9.2,3,14.5,3
		c12.2,0,23.1-5.6,32.9-16.9v-4.2h-26.2v-22.6h52.1v70.5H732V347z"/>
	<path class="st2" d="M778.3,360.3V225.4h31.2v134.9H778.3z"/>
	<path class="st2" d="M835.3,360.3V225.4h60.8c6.3,0,12.2,1.3,17.6,4c5.4,2.7,10,6.1,14,10.5c3.9,4.3,7,9.2,9.2,14.6
		c2.2,5.4,3.3,11,3.3,16.5c0,4.2-0.5,8.2-1.5,12.1c-1,3.9-2.5,7.5-4.4,10.9c-1.9,3.4-4.2,6.5-6.9,9.2c-2.7,2.7-5.8,5-9.2,6.9
		l29.6,50.2h-35.2l-25.8-43.5h-20.3v43.5H835.3z M866.5,289.6H895c3.7,0,6.8-1.7,9.5-5.2c2.7-3.5,4-7.9,4-13.4
		c0-5.6-1.5-10-4.6-13.3c-3-3.3-6.3-4.9-9.9-4.9h-27.5V289.6z"/>
	<path class="st2" d="M962.6,360.3V225.4h31.2v107.5h65.4v27.4H962.6z"/>
</g>
</svg>
